<svg width="76" height="79" viewBox="0 0 76 79" fill="none" xmlns="http://www.w3.org/2000/svg">
<g filter="url(#filter0_d_149_30)">
<path d="M30.2097 66.4668C30.0904 65.9898 29.3749 59.9083 31.5214 58.7159C31.8095 58.214 32.1146 57.9805 33.4998 57.9636C36.3041 57.9467 36.9122 57.3892 35.6453 56.0209C34.9189 55.2438 34.4627 54.3654 34.4627 53.7741C34.4627 53.5883 34.3107 53.3856 34.108 53.3349C33.9222 53.2673 33.7026 53.0308 33.6012 52.7943C33.3985 52.2706 33.3985 51.0037 33.6012 50.784C33.6857 50.6996 33.787 49.7874 33.8208 48.74C33.8715 47 33.9053 46.8142 34.2938 46.4087C34.741 43.6909 42.0149 45.5989 41.2995 46.4087" stroke="#84E4D4" stroke-width="0.5"/>
<path d="M35.1036 46.8305L35.1037 46.8305L35.1008 46.833L34.6283 47.2483V48.8751C34.6283 49.6525 34.6375 50.0672 34.6756 50.2953C34.6812 50.3288 34.687 50.3555 34.6926 50.3767C34.7 50.3188 34.7061 50.2412 34.7105 50.1376C34.7174 49.9747 34.7195 49.7618 34.7195 49.4833C34.7195 48.9853 34.7359 48.6372 34.7879 48.3818C34.8429 48.1118 34.9406 47.9309 35.1035 47.7797L35.1044 47.7789C35.2605 47.6352 35.4988 47.551 35.7357 47.4999C35.9822 47.4468 36.2675 47.4215 36.5533 47.4215C36.8394 47.4215 37.1335 47.4469 37.3982 47.4991C37.6583 47.5503 37.91 47.6312 38.0969 47.754L38.0969 47.754L38.0983 47.7549C38.3185 47.9017 38.3666 47.9156 38.3988 47.9156C38.4124 47.9156 38.44 47.9124 38.5012 47.8857C38.564 47.8584 38.6438 47.8149 38.7617 47.7475C39.1267 47.5261 39.74 47.4257 40.3584 47.4257C40.6948 47.4257 40.9816 47.4401 41.2174 47.494C41.459 47.5493 41.6651 47.65 41.8192 47.8341C41.9692 48.0131 42.0468 48.2439 42.09 48.5126C42.1332 48.7814 42.1457 49.1139 42.1457 49.5171C42.1457 49.7872 42.1478 49.9934 42.155 50.1512C42.1596 50.2536 42.1661 50.3291 42.1739 50.3845C42.1797 50.3622 42.1857 50.3336 42.1915 50.2973C42.2278 50.0679 42.237 49.6519 42.237 48.8751V47.2483L41.7645 46.833L41.7644 46.833L41.7616 46.8305L41.2925 46.4053H38.4326H35.5728L35.1036 46.8305ZM34.7585 50.4416C34.7596 50.4417 34.7602 50.4416 34.7601 50.4416C34.7601 50.4416 34.7595 50.4416 34.7585 50.4416ZM42.1983 50.4913C42.1983 50.4913 42.1981 50.4909 42.1977 50.4902L42.1983 50.4913Z" fill="#141D3F" stroke="#84E4D4" stroke-width="0.5"/>
<path d="M43.4291 50.5904C43.4335 50.6103 43.4376 50.6258 43.4409 50.6373C43.483 50.6782 43.5121 50.7246 43.5322 50.7641C43.5622 50.8228 43.5839 50.8883 43.6001 50.9538C43.6327 51.085 43.6508 51.2455 43.6574 51.4185C43.6709 51.7661 43.6396 52.1987 43.5604 52.6208L43.5605 52.6209L43.5599 52.6238C43.4807 53.0196 43.2384 53.37 42.9101 53.5125C42.8383 53.5459 42.7727 53.5909 42.7234 53.6363C42.8858 53.6638 43.1567 53.6762 43.585 53.6762C43.9266 53.6762 44.2067 53.6833 44.4254 53.7143C44.6385 53.7445 44.8417 53.8031 44.9844 53.9458C45.1375 54.0989 45.1742 54.2991 45.1676 54.4976C45.1611 54.6922 45.1114 54.9286 45.0441 55.2023L45.0441 55.2023L45.0432 55.2056C45.0253 55.2742 45.0086 55.3413 44.9934 55.4052C45.2315 55.2349 45.5431 55.0018 45.8822 54.7416C45.8822 54.7415 45.8823 54.7415 45.8823 54.7415L47.1997 53.7281L47.2671 53.6762H47.3522H48.805C49.2546 53.6762 49.6322 53.6553 49.9081 53.6211C50.0467 53.6039 50.1539 53.584 50.2294 53.5637C50.257 53.5563 50.2778 53.5494 50.2929 53.5437C50.301 53.5196 50.3106 53.4833 50.3207 53.4316C50.3432 53.3158 50.3635 53.1472 50.3801 52.9178C50.4132 52.4604 50.4301 51.7877 50.4301 50.8686C50.4301 49.7683 50.4173 49.1044 50.3784 48.6894C50.3385 48.2633 50.2745 48.1643 50.233 48.1228L50.2329 48.123L50.2266 48.1162C50.213 48.1015 50.1817 48.0736 50.0777 48.0452C49.9691 48.0154 49.801 47.9903 49.531 47.9716C48.9925 47.9344 48.1069 47.9258 46.6089 47.9258H43.3282V49.1793C43.3282 49.5942 43.349 49.9779 43.3796 50.2611C43.3949 50.4035 43.4122 50.515 43.4291 50.5904ZM47.1036 50.8268L47.1036 50.8268L47.1019 50.8302C46.8886 51.2482 46.6743 51.6341 46.5013 51.9174C46.4152 52.0583 46.3367 52.1783 46.2719 52.2652C46.2401 52.3078 46.2068 52.349 46.1741 52.3819C46.1581 52.398 46.1361 52.4183 46.1094 52.4363C46.0899 52.4494 46.0316 52.4869 45.95 52.4869H45.9494C45.9204 52.4869 45.8716 52.4869 45.8245 52.4785C45.7763 52.4698 45.6881 52.4454 45.6222 52.3621C45.5561 52.2785 45.5509 52.1845 45.5556 52.1242C45.5602 52.0635 45.5774 52.0014 45.5972 51.9431C45.6722 51.7228 45.8748 51.3132 46.2421 50.5706L46.2661 50.5222C46.2661 50.522 46.2662 50.5219 46.2663 50.5217C46.464 50.1177 46.6715 49.7498 46.847 49.4801C46.9342 49.346 47.017 49.2306 47.0896 49.1461C47.1253 49.1044 47.1643 49.0635 47.2046 49.0309C47.2248 49.0145 47.2507 48.9959 47.2813 48.9805C47.3099 48.966 47.3584 48.9462 47.4197 48.9462C47.4732 48.9462 47.5347 48.9608 47.59 49.0018C47.6436 49.0416 47.673 49.0923 47.6886 49.1337C47.7164 49.2074 47.7122 49.2813 47.7073 49.3256C47.6966 49.4236 47.6605 49.5465 47.6129 49.6795C47.5151 49.9529 47.3411 50.3432 47.1036 50.8268ZM47.2109 49.2618C47.2108 49.2619 47.2108 49.263 47.2108 49.2651C47.211 49.2628 47.2109 49.2618 47.2109 49.2618ZM45.224 50.9485L45.2241 50.9485L45.2202 50.9514L45.1037 51.0375L45.2177 51.1218C45.3935 51.2452 45.5328 51.3757 45.5979 51.5129C45.6322 51.5853 45.6594 51.6895 45.6203 51.8002C45.5793 51.9162 45.4872 51.9794 45.4077 52.0089C45.2653 52.0617 45.0917 52.0384 44.9407 51.9949C44.7778 51.9481 44.5922 51.8636 44.3991 51.7398C44.221 51.6327 44.0591 51.516 43.9388 51.4142C43.8788 51.3635 43.8244 51.3124 43.7826 51.2648C43.762 51.2414 43.7397 51.2135 43.7212 51.1827C43.7076 51.1603 43.6729 51.1001 43.6729 51.0206C43.6729 50.9687 43.6881 50.9285 43.6974 50.9076C43.7078 50.8844 43.7197 50.8656 43.7289 50.8523C43.7473 50.8258 43.7685 50.8021 43.7869 50.7831C43.8245 50.744 43.8732 50.7011 43.9251 50.6583C44.0303 50.5715 44.1691 50.4688 44.3113 50.3711C44.4536 50.2734 44.6043 50.1771 44.734 50.1043C44.7985 50.068 44.8618 50.0353 44.9185 50.0108C44.9634 49.9915 45.0422 49.9597 45.1223 49.9597C45.21 49.9597 45.2924 49.9961 45.3422 50.0223C45.4012 50.0533 45.4646 50.0972 45.5187 50.1512C45.6117 50.2442 45.6189 50.3616 45.6055 50.4405C45.5927 50.5161 45.5587 50.5833 45.5251 50.6357C45.4563 50.7434 45.3488 50.8525 45.224 50.9485ZM47.8673 51.4713C47.9319 51.3345 48.0609 51.2197 48.2036 51.1212L48.3168 51.0375L48.2003 50.9514L48.2002 50.9514L48.1964 50.9485C48.0717 50.8525 47.9642 50.7434 47.8954 50.6357C47.8618 50.5833 47.8278 50.5161 47.8149 50.4405C47.8016 50.3616 47.8088 50.2442 47.9018 50.1512C47.9436 50.1094 48.0089 50.0457 48.097 50.0086C48.2003 49.9651 48.3025 49.9696 48.3979 49.9966C48.4841 50.021 48.5759 50.0669 48.6739 50.122C48.774 50.1783 48.8979 50.2544 49.0519 50.3501C49.2169 50.4458 49.366 50.5422 49.4761 50.6208C49.5309 50.6599 49.5798 50.6974 49.6172 50.73C49.6352 50.7457 49.6562 50.7651 49.6746 50.7863C49.6836 50.7966 49.6971 50.8131 49.7097 50.8343C49.7183 50.8488 49.7476 50.8992 49.7476 50.9699C49.7476 51.0389 49.7191 51.0892 49.7127 51.1006L49.7123 51.1014C49.7014 51.1206 49.6898 51.1362 49.6819 51.1463C49.6655 51.1671 49.6463 51.1877 49.6286 51.2056C49.5922 51.2427 49.5433 51.2879 49.4877 51.3369C49.3756 51.4358 49.2241 51.5613 49.0612 51.6898L49.0613 51.6899L49.0576 51.6927C48.8422 51.8563 48.6531 51.9768 48.4898 52.0366C48.3273 52.0962 48.1143 52.1194 47.9525 51.9576C47.8952 51.9003 47.8466 51.8246 47.8296 51.73C47.8126 51.635 47.8319 51.5463 47.8673 51.4713Z" fill="#141D3F" stroke="#84E4D4" stroke-width="0.5"/>
<path d="M37.114 56.0972L37.114 56.0972L37.1153 56.098C37.6116 56.4182 38.0443 56.5593 38.4631 56.5502C38.8827 56.541 39.3217 56.3802 39.8289 56.0341L39.8289 56.034L39.8318 56.0321C40.4633 55.6139 40.8776 55.213 41.1494 54.7446C41.4212 54.2763 41.5632 53.7184 41.6124 52.9642C41.6465 52.4181 41.6524 52.1151 41.627 51.9337C41.6149 51.8471 41.5979 51.8078 41.5866 51.7894C41.5783 51.7757 41.5671 51.763 41.5372 51.7456C41.3314 51.6331 41.2409 51.4364 41.1954 51.1754C41.151 50.9205 41.1389 50.5442 41.1389 49.9901C41.1389 49.5663 41.1181 49.2059 41.0839 48.9409C41.0668 48.8078 41.047 48.7044 41.0268 48.6314C41.0167 48.5949 41.0077 48.5706 41.0011 48.556C41.0009 48.5555 41.0007 48.555 41.0005 48.5546C40.9742 48.5354 40.9065 48.5023 40.7764 48.4771C40.6387 48.4503 40.4671 48.4392 40.2863 48.4451C40.1062 48.4509 39.9254 48.4735 39.7705 48.5099C39.6101 48.5475 39.4997 48.5949 39.4428 48.637L39.4412 48.6381C39.3163 48.729 39.1428 48.8023 38.9726 48.8529C38.8 48.9043 38.6065 48.9393 38.4326 48.9393C38.2587 48.9393 38.0652 48.9043 37.8926 48.8529C37.7224 48.8023 37.5489 48.729 37.424 48.6381L37.424 48.6381L37.4225 48.637C37.3655 48.5949 37.2552 48.5475 37.0948 48.5099C36.9399 48.4735 36.759 48.4509 36.5789 48.4451C36.3982 48.4392 36.2265 48.4503 36.0888 48.4771C35.9587 48.5023 35.891 48.5354 35.8647 48.5546C35.8645 48.555 35.8643 48.5555 35.8641 48.556C35.8575 48.5706 35.8485 48.5949 35.8384 48.6314C35.8182 48.7044 35.7984 48.8078 35.7813 48.9409C35.7472 49.2059 35.7263 49.5663 35.7263 49.9901C35.7263 50.5364 35.7142 50.9155 35.6723 51.169C35.6342 51.3997 35.555 51.6324 35.3259 51.7221C35.3243 51.7238 35.3216 51.7273 35.3179 51.7333C35.3056 51.7532 35.2876 51.794 35.2709 51.8715C35.2369 52.0291 35.2195 52.2804 35.2195 52.6761C35.2195 53.513 35.3468 54.1382 35.6361 54.6628C35.9255 55.1876 36.3912 55.6372 37.114 56.0972ZM35.8691 48.5461C35.8691 48.5461 35.8689 48.5463 35.8687 48.5468L35.8691 48.5461Z" fill="#141D3F" stroke="#84E4D4" stroke-width="0.5"/>
<mask id="path-5-inside-1_149_30" fill="white">
<path d="M34.0235 51.747C34.0742 52.0341 34.1249 52.3889 34.1249 52.5071C34.1249 52.6423 34.2093 52.7437 34.2938 52.7437C34.3952 52.7437 34.4627 52.4058 34.4627 51.9835C34.4627 51.3922 34.3952 51.2233 34.1925 51.2233C33.9728 51.2233 33.9391 51.3415 34.0235 51.747Z"/>
</mask>
<path d="M34.0235 51.747C34.0742 52.0341 34.1249 52.3889 34.1249 52.5071C34.1249 52.6423 34.2093 52.7437 34.2938 52.7437C34.3952 52.7437 34.4627 52.4058 34.4627 51.9835C34.4627 51.3922 34.3952 51.2233 34.1925 51.2233C33.9728 51.2233 33.9391 51.3415 34.0235 51.747Z" fill="#141D3F"/>
<path d="M34.0235 51.747L34.513 51.645L34.5146 51.6525L34.5159 51.6601L34.0235 51.747ZM34.5159 51.6601C34.5645 51.9355 34.6249 52.3364 34.6249 52.5071H33.6249C33.6249 52.5083 33.6249 52.5023 33.6238 52.4866C33.6228 52.472 33.6211 52.453 33.6187 52.4296C33.614 52.3826 33.6068 52.3242 33.5978 52.258C33.5798 52.1257 33.5554 51.9717 33.5311 51.8339L34.5159 51.6601ZM34.6249 52.5071C34.6249 52.4725 34.6144 52.425 34.5777 52.3761C34.5468 52.3349 34.4555 52.2437 34.2938 52.2437V53.2437C34.0477 53.2437 33.8719 53.1017 33.7777 52.9761C33.6776 52.8427 33.6249 52.677 33.6249 52.5071H34.6249ZM34.2938 52.2437C34.1565 52.2437 34.0564 52.3037 34.0017 52.3514C33.9517 52.3949 33.9286 52.4363 33.9226 52.4474C33.9108 52.4694 33.9168 52.4665 33.9275 52.4167C33.9471 52.3255 33.9627 52.1734 33.9627 51.9835H34.9627C34.9627 52.2159 34.9446 52.4438 34.9051 52.6272C34.8863 52.7146 34.8563 52.8226 34.8033 52.9211C34.7705 52.9821 34.6202 53.2437 34.2938 53.2437V52.2437ZM33.9627 51.9835C33.9627 51.8432 33.9587 51.7396 33.9513 51.663C33.9477 51.6253 33.9436 51.5978 33.9398 51.5783C33.936 51.5586 33.9333 51.5513 33.9337 51.5525C33.9344 51.5544 33.9561 51.6129 34.0281 51.6647C34.1029 51.7186 34.1733 51.7233 34.1925 51.7233V50.7233C34.313 50.7233 34.4678 50.7491 34.6123 50.8531C34.754 50.9551 34.8306 51.0927 34.8735 51.2108C34.9498 51.4205 34.9627 51.6947 34.9627 51.9835H33.9627ZM34.1925 51.7233C34.1718 51.7233 34.2241 51.728 34.2965 51.6895C34.337 51.6679 34.3773 51.6362 34.411 51.594C34.4439 51.5528 34.4616 51.5127 34.4707 51.4836C34.4863 51.4344 34.4786 51.4129 34.4819 51.4554C34.4848 51.4923 34.4936 51.5516 34.513 51.645L33.534 51.8489C33.5113 51.7396 33.4926 51.6321 33.4849 51.5327C33.4776 51.4391 33.4763 51.312 33.5172 51.1825C33.5648 51.0317 33.6658 50.8923 33.8266 50.8067C33.9645 50.7333 34.1033 50.7233 34.1925 50.7233V51.7233Z" fill="#84E4D4" mask="url(#path-5-inside-1_149_30)"/>
<mask id="path-7-inside-2_149_30" fill="white">
<path d="M42.4025 51.9835C42.4025 52.4058 42.487 52.7437 42.5714 52.7437C42.6728 52.7437 42.7404 52.6423 42.7404 52.5071C42.7404 52.3889 42.791 52.0341 42.8417 51.747C42.9262 51.3415 42.8924 51.2233 42.6728 51.2233C42.4701 51.2233 42.4025 51.3922 42.4025 51.9835Z"/>
</mask>
<path d="M42.4025 51.9835C42.4025 52.4058 42.487 52.7437 42.5714 52.7437C42.6728 52.7437 42.7404 52.6423 42.7404 52.5071C42.7404 52.3889 42.791 52.0341 42.8417 51.747C42.9262 51.3415 42.8924 51.2233 42.6728 51.2233C42.4701 51.2233 42.4025 51.3922 42.4025 51.9835Z" fill="#141D3F"/>
<path d="M42.8417 51.747L42.3493 51.6601L42.3507 51.6525L42.3522 51.645L42.8417 51.747ZM42.9025 51.9835C42.9025 52.1655 42.9211 52.3167 42.9425 52.4095C42.9541 52.4596 42.9612 52.4693 42.9535 52.4546C42.9502 52.4482 42.9311 52.4111 42.8877 52.3691C42.8448 52.3275 42.7373 52.2437 42.5714 52.2437V53.2437C42.3844 53.2437 42.2558 53.1492 42.1921 53.0875C42.128 53.0254 42.0883 52.9586 42.0653 52.914C42.0181 52.8226 41.9882 52.7215 41.9681 52.6344C41.9262 52.4526 41.9025 52.2238 41.9025 51.9835H42.9025ZM42.5714 52.2437C42.4345 52.2437 42.3334 52.3193 42.2843 52.3893C42.242 52.4498 42.2404 52.4975 42.2404 52.5071H43.2404C43.2404 52.6519 43.205 52.8179 43.1035 52.9628C42.9953 53.1174 42.8097 53.2437 42.5714 53.2437V52.2437ZM42.2404 52.5071C42.2404 52.3364 42.3007 51.9355 42.3493 51.6601L43.3341 51.8339C43.3098 51.9717 43.2855 52.1257 43.2674 52.258C43.2584 52.3242 43.2513 52.3826 43.2465 52.4296C43.2441 52.453 43.2425 52.472 43.2415 52.4866C43.2404 52.5023 43.2404 52.5083 43.2404 52.5071H42.2404ZM42.3522 51.645C42.3717 51.5516 42.3805 51.4923 42.3833 51.4554C42.3866 51.4129 42.3789 51.4344 42.3945 51.4836C42.4037 51.5127 42.4214 51.5528 42.4542 51.594C42.4879 51.6362 42.5283 51.6679 42.5688 51.6895C42.6412 51.728 42.6934 51.7233 42.6728 51.7233V50.7233C42.7619 50.7233 42.9008 50.7333 43.0386 50.8067C43.1995 50.8923 43.3005 51.0317 43.3481 51.1825C43.389 51.312 43.3876 51.4391 43.3803 51.5327C43.3726 51.6321 43.354 51.7396 43.3312 51.8489L42.3522 51.645ZM42.6728 51.7233C42.692 51.7233 42.7623 51.7186 42.8371 51.6647C42.9092 51.6129 42.9308 51.5544 42.9315 51.5525C42.932 51.5513 42.9292 51.5586 42.9254 51.5783C42.9216 51.5978 42.9176 51.6253 42.9139 51.663C42.9066 51.7396 42.9025 51.8432 42.9025 51.9835H41.9025C41.9025 51.6947 41.9155 51.4205 41.9917 51.2108C42.0346 51.0927 42.1112 50.9551 42.253 50.8531C42.3974 50.7491 42.5523 50.7233 42.6728 50.7233V51.7233Z" fill="#84E4D4" mask="url(#path-7-inside-2_149_30)"/>
<path d="M42.6112 53.5883C42.6112 53.4691 41.6026 55.604 41.2568 56.0139C40.125 57.3459 40.7066 57.9265 43.206 57.9436C44.4007 57.9607 44.888 58.1827 44.9037 58.695C44.9194 58.8145 45.1866 59.1048 45.5167 59.3439C46.4756 60.0611 46.6485 60.693 46.7429 63.6815L46.8372 66.2943L46.4285 66.7383" stroke="#84E4D4" stroke-width="0.5"/>
<path d="M37.1262 57.8096C37.1263 57.8095 37.1266 57.8082 37.127 57.806C37.1263 57.8085 37.1261 57.8096 37.1262 57.8096ZM37.1635 57.6922C37.36 57.722 37.7368 57.7305 38.4326 57.7305C38.8353 57.7305 39.1332 57.7305 39.3545 57.7245C39.5244 57.72 39.6357 57.712 39.7079 57.7014C39.7047 57.6906 39.7012 57.6786 39.6971 57.6654C39.6843 57.6241 39.6736 57.5888 39.6643 57.5581C39.6499 57.5105 39.6389 57.4742 39.6287 57.4443C39.5639 57.462 39.4781 57.4923 39.3497 57.5375C39.3316 57.5438 39.3127 57.5505 39.2929 57.5574C38.7039 57.7663 37.8715 57.7067 37.2241 57.4587C37.2191 57.4835 37.2135 57.5077 37.2079 57.5307C37.195 57.5839 37.1796 57.639 37.1635 57.6922ZM39.6032 57.3815C39.6032 57.3815 39.6035 57.382 39.604 57.3828L39.6032 57.3815Z" fill="#141D3F" stroke="#84E4D4" stroke-width="0.5"/>
<path d="M32.9071 65.0289C32.9073 65.0297 32.9074 65.0304 32.9075 65.0312C32.9361 65.0376 32.9745 65.0448 33.0247 65.0521C33.2073 65.0786 33.4982 65.1004 33.9319 65.1172C34.7963 65.1508 36.1937 65.1635 38.3482 65.1635C40.5026 65.1635 41.9 65.1508 42.7644 65.1172C43.1981 65.1004 43.489 65.0786 43.6716 65.0521C43.7218 65.0448 43.7602 65.0376 43.7888 65.0312C43.7889 65.0304 43.7891 65.0297 43.7892 65.0289C43.7986 64.9732 43.8094 64.8971 43.8211 64.8021C43.8445 64.6125 43.8708 64.3565 43.8986 64.055C43.954 63.4525 44.0146 62.6753 44.0683 61.8994C44.1221 61.1234 44.169 60.3504 44.1971 59.7562C44.2112 59.4589 44.2205 59.2081 44.2237 59.0247C44.2247 58.9675 44.2251 58.9178 44.2249 58.8759C44.1442 58.8636 44.033 58.8513 43.892 58.8394C43.5596 58.8114 43.0861 58.7878 42.5156 58.7689C41.3759 58.731 39.8627 58.712 38.3482 58.712C36.8336 58.712 35.3204 58.731 34.1807 58.7689C33.6102 58.7878 33.1367 58.8114 32.8043 58.8394C32.6633 58.8513 32.5521 58.8636 32.4714 58.8759C32.4712 58.9178 32.4716 58.9675 32.4726 59.0247C32.4758 59.2081 32.4851 59.4589 32.4992 59.7562C32.5273 60.3504 32.5742 61.1234 32.628 61.8994C32.6817 62.6753 32.7423 63.4525 32.7978 64.055C32.8255 64.3565 32.8518 64.6125 32.8752 64.8021C32.8869 64.8971 32.8977 64.9732 32.9071 65.0289ZM37.5629 63.3209L37.5626 63.3207C37.041 62.9544 36.9843 62.2932 37.1615 61.7783C37.3393 61.2617 37.792 60.7713 38.4326 60.7713C38.5977 60.7713 38.7771 60.8224 38.9336 60.8922C39.0917 60.9628 39.2502 61.063 39.3696 61.1824C40.6049 62.4177 38.9889 64.3191 37.5629 63.3209Z" fill="#141D3F" stroke="#84E4D4" stroke-width="0.5"/>
<path d="M38.1641 62.1108C38.104 62.3163 38.1366 62.3825 38.1462 62.3956C38.155 62.4076 38.2084 62.4606 38.4326 62.4606C38.5701 62.4606 38.6452 62.4061 38.682 62.3483C38.7205 62.2878 38.7418 62.1839 38.6901 62.0426C38.6709 62.0003 38.594 61.938 38.4376 61.9504C38.2851 61.9625 38.1902 62.0383 38.1641 62.1108Z" fill="#141D3F" stroke="#84E4D4" stroke-width="0.5"/>
<path d="M45.3767 60.1171C45.3544 60.0964 45.3329 60.077 45.3122 60.059C45.3118 60.0639 45.3115 60.0689 45.3111 60.074C45.3011 60.208 45.2887 60.3743 45.2745 60.5667C45.2365 61.0816 45.1858 61.782 45.1352 62.5414L45.1352 62.5414L45.135 62.5445L44.9245 65.2L45.2315 65.507C45.3516 65.6272 45.4592 65.7577 45.5387 65.8757C45.5783 65.9345 45.6137 65.9942 45.6401 66.0511C45.6517 66.076 45.665 66.1075 45.6755 66.1431C45.7216 66.1523 45.7934 66.1567 45.8852 66.1452L45.8886 66.1448L46.1268 66.1184L46.1731 63.8047C46.1731 63.8046 46.1731 63.8044 46.1731 63.8042C46.2073 61.6334 46.1654 61.2363 45.9476 60.8152C45.8397 60.6067 45.6011 60.3254 45.3767 60.1171Z" fill="#141D3F" stroke="#84E4D4" stroke-width="0.5"/>
<path d="M31.1299 60.4309L31.1294 60.4315C30.9222 60.6979 30.8031 60.9425 30.7387 61.4418C30.6718 61.9606 30.6667 62.7352 30.6921 64.0569C30.6921 64.057 30.6921 64.0571 30.6921 64.0572L30.7378 66.1114L30.9351 66.1272L30.9351 66.1271L30.9414 66.1278C31.062 66.1405 31.126 66.123 31.1828 66.0855C31.2529 66.0392 31.3392 65.9441 31.461 65.741L31.4609 65.7409L31.4653 65.7341C31.5492 65.6041 31.5984 65.5203 31.6325 65.4255C31.666 65.3326 31.6892 65.2157 31.698 65.022C31.7162 64.6226 31.6716 63.9623 31.5781 62.6449C31.5278 62.0122 31.4805 61.4254 31.4428 60.9575C31.4363 60.8762 31.43 60.7984 31.4241 60.7246C31.4058 60.4971 31.3905 60.3072 31.3793 60.1665C31.3047 60.2286 31.2176 60.3173 31.1299 60.4309Z" fill="#141D3F" stroke="#84E4D4" stroke-width="0.5"/>
<mask id="path-15-inside-3_149_30" fill="white">
<path d="M32.216 66.0385C32.1484 66.0892 32.0977 66.2075 32.0977 66.2919C32.0977 66.3595 34.9526 66.4271 38.4495 66.4271C43.4499 66.4271 44.7844 66.3764 44.7338 66.2243C44.6662 66.0554 43.2472 65.9878 38.4833 65.9541C35.1047 65.9372 32.2835 65.9709 32.216 66.0385Z"/>
</mask>
<path d="M32.216 66.0385C32.1484 66.0892 32.0977 66.2075 32.0977 66.2919C32.0977 66.3595 34.9526 66.4271 38.4495 66.4271C43.4499 66.4271 44.7844 66.3764 44.7338 66.2243C44.6662 66.0554 43.2472 65.9878 38.4833 65.9541C35.1047 65.9372 32.2835 65.9709 32.216 66.0385Z" fill="#141D3F"/>
<path d="M32.216 66.0385L32.5695 66.3921L32.5444 66.4172L32.516 66.4385L32.216 66.0385ZM44.7338 66.2243L45.198 66.0387L45.2034 66.0523L45.2081 66.0662L44.7338 66.2243ZM38.4833 65.9541L38.4858 65.4541L38.4869 65.4541L38.4833 65.9541ZM32.516 66.4385C32.5479 66.4146 32.5655 66.3925 32.5729 66.3824C32.581 66.3712 32.5849 66.3633 32.5867 66.3595C32.5885 66.3554 32.5905 66.3502 32.5924 66.3425C32.594 66.3359 32.5977 66.3186 32.5977 66.2919H31.5977C31.5977 66.1614 31.6336 66.0397 31.6763 65.9456C31.7177 65.8546 31.7918 65.7317 31.916 65.6385L32.516 66.4385ZM32.5977 66.2919C32.5977 66.0574 32.4445 65.9291 32.4028 65.8974C32.3489 65.8563 32.3 65.8371 32.2848 65.8313C32.2638 65.8233 32.2476 65.8189 32.2406 65.8171C32.2325 65.815 32.2271 65.814 32.2255 65.8137C32.2237 65.8133 32.2373 65.8157 32.276 65.8195C32.3485 65.8266 32.4639 65.8343 32.623 65.8421C32.9386 65.8577 33.3995 65.8723 33.9733 65.885C35.1197 65.9102 36.7039 65.9271 38.4495 65.9271V66.9271C36.6983 66.9271 35.1066 66.9101 33.9513 66.8847C33.3743 66.872 32.9029 66.8571 32.5739 66.8409C32.4107 66.8329 32.2758 66.8243 32.1785 66.8147C32.1323 66.8102 32.0811 66.8043 32.0357 66.7955C32.0169 66.7918 31.9743 66.7832 31.9272 66.7652C31.9065 66.7573 31.8535 66.736 31.7968 66.6928C31.7523 66.659 31.5977 66.5285 31.5977 66.2919H32.5977ZM38.4495 65.9271C40.9508 65.9271 42.5264 65.9144 43.4692 65.883C43.9443 65.8672 44.241 65.8471 44.4104 65.8245C44.5025 65.8123 44.5206 65.8036 44.5038 65.8101C44.501 65.8112 44.4313 65.8357 44.3624 65.909C44.3229 65.9509 44.2752 66.018 44.2506 66.1118C44.2251 66.2095 44.2332 66.304 44.2594 66.3825L45.2081 66.0662C45.2374 66.1542 45.246 66.258 45.2181 66.3648C45.1912 66.4678 45.1382 66.5437 45.0905 66.5944C45.0052 66.6851 44.9072 66.7263 44.863 66.7433C44.7633 66.7817 44.6464 66.8019 44.5424 66.8158C44.3196 66.8455 43.9796 66.8666 43.5024 66.8824C42.5405 66.9144 40.9486 66.9271 38.4495 66.9271V65.9271ZM44.2695 66.41C44.3196 66.5354 44.4063 66.5964 44.435 66.6148C44.4682 66.6361 44.4903 66.6423 44.4839 66.6402C44.472 66.6363 44.4273 66.6246 44.3287 66.6107C44.1368 66.5836 43.8243 66.559 43.3476 66.538C42.3994 66.4963 40.8625 66.4709 38.4798 66.454L38.4869 65.4541C40.868 65.471 42.4225 65.4963 43.3916 65.539C43.8736 65.5602 44.2263 65.5863 44.4684 65.6205C44.5868 65.6372 44.7012 65.6588 44.7984 65.691C44.8466 65.707 44.9107 65.732 44.9745 65.7728C45.0338 65.8108 45.1394 65.8922 45.198 66.0387L44.2695 66.41ZM38.4808 66.4541C36.7934 66.4456 35.2466 66.4498 34.1145 66.4646C33.5479 66.4719 33.0882 66.4819 32.7676 66.4941C32.6064 66.5002 32.486 66.5067 32.4067 66.5131C32.3658 66.5165 32.3448 66.5191 32.3379 66.5202C32.3333 66.5209 32.3443 66.5195 32.3631 66.5143C32.3723 66.5118 32.3936 66.5056 32.4204 66.494C32.4387 66.486 32.5046 66.457 32.5695 66.3921L31.8624 65.685C31.9294 65.618 31.9988 65.5868 32.0219 65.5768C32.0535 65.5631 32.0809 65.5548 32.0975 65.5502C32.1311 65.541 32.1622 65.5355 32.1828 65.5323C32.2263 65.5255 32.2762 65.5205 32.3254 65.5165C32.4266 65.5082 32.5641 65.5011 32.7297 65.4948C33.0627 65.4822 33.5321 65.4721 34.1015 65.4647C35.2415 65.4498 36.7946 65.4456 38.4858 65.4541L38.4808 66.4541Z" fill="#84E4D4" mask="url(#path-15-inside-3_149_30)"/>
</g>
<path d="M74.3731 23V59L38 77L1.62694 59V23" stroke="#84E4D4" stroke-width="3"/>
<path d="M1.62695 56L1.62694 20L38 2L74.3731 20L74.3731 56" stroke="#84E4D4" stroke-width="3"/>
<path d="M16.4697 27.0811C17.3568 26.9753 18.2926 26.9224 19.2773 26.9224C20.3597 26.9224 21.3281 27.0933 22.1826 27.4351C23.0452 27.7769 23.741 28.2163 24.27 28.7534C24.8071 29.2824 25.2466 29.909 25.5884 30.6333C25.9302 31.3576 26.1662 32.0778 26.2964 32.7939C26.4347 33.502 26.5039 34.2303 26.5039 34.979C26.5039 37.4448 25.8122 39.4183 24.4287 40.8994C23.0452 42.3805 21.0514 43.1211 18.4473 43.1211L16.4453 43.0967C16.3639 39.7194 16.3232 37.1966 16.3232 35.5283C16.3232 32.5091 16.3721 29.6934 16.4697 27.0811ZM19.0942 44.5005C16.368 44.5005 13.6458 44.533 10.9277 44.5981C10.7243 44.0366 10.7243 43.5117 10.9277 43.0234C12.6937 42.8444 13.5848 42.6043 13.6011 42.3032C13.6987 39.7479 13.7476 37.1885 13.7476 34.625C13.7476 32.0046 13.7069 29.7381 13.6255 27.8257C13.6092 27.5246 12.7018 27.2845 10.9033 27.1055C10.765 26.5846 10.7812 26.0597 10.9521 25.5308C11.9531 25.547 15.07 25.5552 20.3027 25.5552C21.4339 25.5552 22.4715 25.6243 23.4155 25.7627C24.3677 25.901 25.3361 26.1818 26.3208 26.605C27.3055 27.02 28.1356 27.5653 28.811 28.2407C29.4865 28.9162 30.0358 29.8276 30.459 30.9751C30.8822 32.1226 31.0938 33.4653 31.0938 35.0034C31.0938 36.4683 30.8455 37.7663 30.3491 38.8975C29.8527 40.0286 29.2017 40.9401 28.396 41.6318C27.5985 42.3236 26.6585 42.8932 25.5762 43.3408C24.4938 43.7803 23.4277 44.0814 22.3779 44.2441C21.3281 44.415 20.2336 44.5005 19.0942 44.5005ZM18.3496 27.5205C18.252 30.377 18.2031 33.0462 18.2031 35.5283C18.2031 37.5465 18.2357 39.9106 18.3008 42.6206C20.8643 42.5555 22.7889 41.8353 24.0747 40.46C25.3605 39.0846 26.0034 37.2576 26.0034 34.979C26.0034 34.092 25.8976 33.2456 25.686 32.4399C25.4744 31.6261 25.1367 30.8368 24.6729 30.0718C24.209 29.3068 23.5295 28.6883 22.6343 28.2163C21.7472 27.7362 20.7015 27.4798 19.4971 27.4473C19.0983 27.4473 18.7158 27.4717 18.3496 27.5205ZM11.2695 44.0732C13.0192 44.0244 15.3385 44 18.2275 44C19.2611 44 20.258 43.9227 21.2183 43.7681C22.1867 43.6053 23.1673 43.3123 24.1602 42.8892C25.153 42.466 26.0116 41.9289 26.7358 41.2778C27.4601 40.6268 28.0542 39.7601 28.5181 38.6777C28.9901 37.5954 29.2261 36.3625 29.2261 34.979C29.2261 29.0301 25.9587 26.0557 19.4238 26.0557C18.8216 26.0557 17.9671 26.0679 16.8604 26.0923C15.7536 26.1167 14.7485 26.1289 13.8452 26.1289C12.95 26.1289 12.0996 26.1045 11.2939 26.0557C11.2288 26.2021 11.2288 26.3934 11.2939 26.6294C13.1657 26.8084 14.1097 27.1991 14.126 27.8013C14.2074 29.7137 14.248 31.9883 14.248 34.625C14.248 37.2048 14.1992 39.7723 14.1016 42.3276C14.0853 42.9299 13.1413 43.3205 11.2695 43.4995C11.1882 43.6867 11.1882 43.8779 11.2695 44.0732ZM56.4233 44.5005C57.6603 44.5005 58.9258 44.2197 60.2197 43.6582C61.5218 43.0885 62.5513 42.2544 63.3081 41.1558C63.3081 41.05 63.2593 40.9604 63.1616 40.8872C63.0721 40.814 62.9704 40.7773 62.8564 40.7773C61.6357 42.2585 59.8413 42.999 57.4731 42.999C54.9748 42.999 53.0868 42.2463 51.8091 40.7407C50.5396 39.2271 49.9048 37.3472 49.9048 35.1011C49.9048 34.0838 50.0146 33.1032 50.2344 32.1592C50.4622 31.207 50.8122 30.2996 51.2842 29.437C51.7643 28.5662 52.4438 27.8623 53.3228 27.3252C54.2098 26.7881 55.2433 26.5195 56.4233 26.5195C57.229 26.5195 57.9736 26.6457 58.6572 26.8979C59.3408 27.1502 59.9023 27.4473 60.3418 27.7891C60.7812 28.1309 61.2085 28.5907 61.6235 29.1685C62.0467 29.7381 62.3641 30.2345 62.5757 30.6577C62.7954 31.0728 63.0558 31.6017 63.3569 32.2446C63.6011 32.2121 63.7516 32.1226 63.8086 31.9761C63.2064 29.5591 62.2949 27.903 61.0742 27.0078C59.8617 26.1045 58.3114 25.6528 56.4233 25.6528C55.6584 25.6528 54.8771 25.7464 54.0796 25.9336C53.2821 26.1126 52.4601 26.4382 51.6138 26.9102C50.7756 27.374 50.035 27.9518 49.3921 28.6436C48.7492 29.3271 48.2202 30.2305 47.8052 31.3535C47.3901 32.4684 47.1826 33.7176 47.1826 35.1011C47.1826 36.4845 47.3901 37.7337 47.8052 38.8486C48.2202 39.9635 48.7492 40.8628 49.3921 41.5464C50.035 42.23 50.7756 42.8037 51.6138 43.2676C52.4601 43.7233 53.2821 44.0407 54.0796 44.2197C54.8771 44.4069 55.6584 44.5005 56.4233 44.5005ZM63.0518 32.7939C62.7018 32.0127 62.3804 31.3698 62.0874 30.8652C61.7944 30.3525 61.4038 29.7829 60.9155 29.1562C60.4272 28.5215 59.8454 28.0291 59.1699 27.6792C58.4945 27.3293 57.7376 27.1177 56.8994 27.0444C55.9717 27.1177 55.1619 27.4147 54.4702 27.9355C53.7785 28.4482 53.2414 29.1074 52.8589 29.9131C52.4845 30.7188 52.2078 31.557 52.0288 32.4277C51.8579 33.2904 51.7725 34.1815 51.7725 35.1011C51.7725 37.1519 52.2892 38.873 53.3228 40.2646C54.3563 41.6562 55.8984 42.4009 57.9492 42.4985C59.9349 42.4009 61.4933 41.6603 62.6245 40.2769C62.9419 40.2769 63.2186 40.3826 63.4546 40.5942C63.6906 40.7977 63.8086 41.0418 63.8086 41.3267C62.9867 42.5229 61.8758 43.4344 60.4761 44.061C59.0763 44.6877 57.7254 45.001 56.4233 45.001C55.6095 45.001 54.7835 44.9033 53.9453 44.708C53.1152 44.5208 52.2526 44.1872 51.3574 43.707C50.4704 43.2188 49.6851 42.6125 49.0015 41.8882C48.3179 41.1639 47.7604 40.2158 47.3291 39.0439C46.8978 37.8639 46.6821 36.5496 46.6821 35.1011C46.6821 33.5874 46.9059 32.2365 47.3535 31.0483C47.8011 29.8521 48.3748 28.8958 49.0747 28.1797C49.7746 27.4635 50.5924 26.8695 51.5283 26.3975C52.4642 25.9173 53.3716 25.5918 54.2505 25.4209C55.1375 25.2419 56.0286 25.1523 56.9238 25.1523C58.1445 25.1523 59.471 25.3151 60.9033 25.6406C62.3356 25.9661 63.361 26.1696 63.9795 26.251C63.7109 27.3008 63.6051 28.2244 63.6621 29.022C63.7191 29.8114 63.951 30.7798 64.3579 31.9272C64.1219 32.4074 63.6865 32.6963 63.0518 32.7939Z" fill="#84E4D4"/>
<defs>
<filter id="filter0_d_149_30" x="25.75" y="44.75" width="28.9301" height="30.1576" filterUnits="userSpaceOnUse" color-interpolation-filters="sRGB">
<feFlood flood-opacity="0" result="BackgroundImageFix"/>
<feColorMatrix in="SourceAlpha" type="matrix" values="0 0 0 0 0 0 0 0 0 0 0 0 0 0 0 0 0 0 127 0" result="hardAlpha"/>
<feOffset dy="4"/>
<feGaussianBlur stdDeviation="2"/>
<feComposite in2="hardAlpha" operator="out"/>
<feColorMatrix type="matrix" values="0 0 0 0 0.517647 0 0 0 0 0.894118 0 0 0 0 0.831373 0 0 0 0.2 0"/>
<feBlend mode="normal" in2="BackgroundImageFix" result="effect1_dropShadow_149_30"/>
<feBlend mode="normal" in="SourceGraphic" in2="effect1_dropShadow_149_30" result="shape"/>
</filter>
</defs>
</svg>
