<svg xmlns="http://www.w3.org/2000/svg" fill="#ffff" width="32" height="32" viewBox="0 0 8.467 8.467" id="play"><path fill-rule="evenodd" d="M16 1c-2.512.001-4.98.642-7.18 1.848a1 1 0 1 0 .961 1.754A12.952 12.952 0 0 1 16 3c7.19-.004 13 5.808 13 13s-5.808 13-13 13S3 23.192 3 16c0-2.178.545-4.321 1.588-6.232a1 1 0 1 0-1.754-.957A15.005 15.005 0 0 0 1 16c0 8.272 6.728 15 15 15s15-6.728 15-15S24.273.996 16 1zM6.115 5.102a1 1 0 0 0-.722.29 1 1 0 0 0 0 1.415 1 1 0 0 0 1.416 0 1 1 0 0 0-.002-1.414 1 1 0 0 0-.692-.291zm5.889 3.896a1 1 0 0 0-1.006 1.004v11.996a1 1 0 0 0 1.477.879l11.007-6.002a1 1 0 0 0 0-1.75L12.475 9.123a1 1 0 0 0-.471-.125zM13 11.686l7.92 4.31L13 20.314v-8.628z" color="#000" font-family="sans-serif" font-weight="400" overflow="visible" paint-order="stroke fill markers" transform="scale(.26458)" style="line-height:normal;font-variant-ligatures:normal;font-variant-position:normal;font-variant-caps:normal;font-variant-numeric:normal;font-variant-alternates:normal;font-feature-settings:normal;text-indent:0;text-align:start;text-decoration-line:none;text-decoration-style:solid;text-decoration-color:#000;text-transform:none;text-orientation:mixed;shape-padding:0;isolation:auto;mix-blend-mode:normal"></path></svg>